<?xml version="1.0" encoding="UTF-8" standalone="no"?>
<svg width="85px" height="85px" viewBox="0 0 85 85" version="1.1" xmlns="http://www.w3.org/2000/svg" xmlns:xlink="http://www.w3.org/1999/xlink" xmlns:sketch="http://www.bohemiancoding.com/sketch/ns">
    <!-- Generator: Sketch 3.3.3 (12081) - http://www.bohemiancoding.com/sketch -->
    <title>globe-5-icon</title>
    <desc>Created with Sketch.</desc>
    <defs></defs>
    <g id="Page-1" stroke="none" stroke-width="1" fill="none" fill-rule="evenodd" sketch:type="MSPage">
        <g id="MyDevice-Copy" sketch:type="MSArtboardGroup" transform="translate(-353.000000, -763.000000)" fill="#122134">
            <g id="-" sketch:type="MSLayerGroup" transform="translate(29.000000, 759.000000)">
                <g id="globe-5-icon" transform="translate(299.597222, 4.060000)" sketch:type="MSShapeGroup">
                    <path d="M84.1225186,25.558248 C84.3035573,26.1733528 83.5612375,26.2895415 83.2981497,26.1567836 C83.1467058,26.0802791 83.0779234,26.2510847 82.9691369,26.3028378 C82.9644426,26.3052925 82.9587277,26.3075426 82.9538292,26.3099973 C82.8762704,26.3118383 82.7958541,26.2934281 82.7423793,26.2791091 C82.6113457,26.2422887 82.0621066,26.2377885 81.8573921,26.1518743 C81.8565757,26.1514651 81.8555551,26.151056 81.8543305,26.1504424 C81.8092239,26.1281456 81.1136435,25.8656981 81.0628221,25.8814491 C80.840963,25.9495668 80.5797121,25.788989 80.3745894,25.9499759 C80.2529444,26.0442769 80.1061949,26.0954164 79.9863869,26.1905357 C79.8194313,26.3226799 79.8126959,26.3277938 79.8100426,26.3664552 C79.8096344,26.3701372 79.8094303,26.3740238 79.8090221,26.3777059 C79.8043278,26.4220949 79.7994293,26.4601426 79.7461586,26.4830531 C79.68105,26.5108729 79.5779784,26.5262147 79.5269528,26.5262147 C79.3771418,26.5268284 79.227739,26.5528072 79.078132,26.5354198 C78.9430163,26.520078 78.8127991,26.6119244 78.6770711,26.551989 L78.6764588,26.551989 C78.4274541,26.4464372 78.2151878,26.2754271 78.0582332,26.0545048 L77.9016868,25.8348099 C77.9016868,25.8346054 77.9014827,25.8346054 77.9014827,25.8344008 C77.8902571,25.8182408 77.8892365,25.7973759 77.8990334,25.7801931 C77.912096,25.7568735 77.9394457,25.739077 77.9941451,25.7916483 C77.9943492,25.7920574 77.9947574,25.792262 77.9951656,25.7926711 C78.0033297,25.8012625 78.0163922,25.8033081 78.0263932,25.797785 C78.0370066,25.7920574 78.0421091,25.7801931 78.0394558,25.7687378 C78.0086363,25.6386392 77.9543452,25.4449231 77.9986353,25.3170746 C77.9992476,25.3158472 77.9996558,25.3146199 78.0000641,25.3133926 C78.0268014,25.2375017 78.1339551,25.2548891 78.1600802,25.1777708 C78.1898791,25.0881746 78.1398741,25.0055333 78.133751,24.91921 C78.1302813,24.8787076 78.1735509,24.4992532 78.1735509,24.4980259 L78.1808986,24.4980259 C78.2531508,24.4636602 78.2849908,24.4092478 78.3002984,24.3472669 C78.3409148,24.1840299 78.4133711,24.0330664 78.515014,23.8990811 C78.5427719,23.8624653 78.5727749,23.777983 78.6470681,23.5681069 C78.6750301,23.4875112 78.6817655,23.4680782 78.8032063,23.4343262 C78.9509763,23.3930056 79.1067063,23.3809367 79.2591707,23.3995514 C79.3399952,23.4095747 79.4381684,23.426553 79.5540984,23.4549865 C79.5645076,23.4576458 79.573284,23.4646007 79.5779784,23.4742149 C79.5779784,23.4742149 79.5781825,23.4744195 79.5781825,23.4746241 C79.5847138,23.4875112 79.5802235,23.5034667 79.567161,23.5106262 C79.5336882,23.5292409 79.5149108,23.5674932 79.5218503,23.6063592 C79.529402,23.6495208 79.5667528,23.6810227 79.6106347,23.6816364 C79.66513,23.68225 79.7147269,23.6595441 79.7582006,23.6390884 C79.8318816,23.6055409 79.858823,23.593472 79.9194414,23.6345881 C79.9667931,23.6669082 79.9921018,23.7231616 79.9847541,23.7802331 C79.96863,23.9054224 79.7996334,23.9031723 79.8016744,24.0038146 C79.8026949,24.0451353 79.8294323,24.0811374 79.8684159,24.09382 C80.0612925,24.1519144 80.1974286,24.2916272 80.2570265,24.4628419 C80.2592716,24.4695923 80.2621291,24.4761382 80.2655988,24.482684 C80.273967,24.4978213 80.3082562,24.5475288 80.4103073,24.535869 C80.449699,24.5305505 80.8279004,24.1711428 80.8419835,24.1425047 C80.8419835,24.1423001 80.8421876,24.1423001 80.8421876,24.1420956 C80.8705578,24.0840012 80.7883046,24.0682503 80.7313601,24.0377712 C80.5966526,23.9657669 80.5082763,23.8295315 80.4974589,23.6771361 C80.4862333,23.5245361 80.5539952,23.3770501 80.6770689,23.286431 C80.6780894,23.2858174 80.6789058,23.2852037 80.6797222,23.2847946 L81.372037,22.8836571 C81.3730575,22.883248 81.372037,22.8836571 81.3730575,22.883248 C81.3850995,22.876293 81.3983662,22.8717927 81.412041,22.8701563 C81.4126533,22.8701563 81.4132656,22.8699517 81.4138779,22.8699517 C81.4575558,22.8650423 81.7604435,22.6844179 81.8704546,22.6719399 C81.9029069,22.6672351 81.9757714,22.7476262 81.9539324,22.8067434 C81.9400535,22.8452002 81.9063766,22.9055447 81.8267767,22.9513656 C81.7320733,23.0061871 81.5006214,23.1262624 81.5130716,23.2336552 C81.5291957,23.3686632 81.6871708,23.3187511 81.7692199,23.3707088 C81.8314711,23.4105975 81.8102445,23.4388265 81.793304,23.4961026 C81.7930999,23.4975345 81.7926917,23.4989664 81.7922835,23.5003983 C81.7467687,23.6617943 81.6747206,23.811735 81.5775679,23.948175 C81.5720572,23.9559481 81.5687915,23.9641305 81.5702202,23.9719036 C81.5894058,24.0756144 81.5894058,24.0756144 81.9488299,24.2190093 C82.1086419,24.2828312 82.2902929,24.1977353 82.4445942,24.29265 C82.7948336,24.5080492 83.0550639,24.8506832 83.4528592,24.9948963 C83.5851174,25.0427628 84.0243454,25.2242054 84.1225186,25.558248 L84.1225186,25.558248 Z M109.40609,42.138871 C109.40609,65.4115966 90.5819459,84.2777419 67.3612354,84.2777419 C44.1401167,84.2777419 25.3159722,65.4115966 25.3159722,42.138871 C25.3159722,18.8661453 44.1401167,0 67.3612354,0 C90.5819459,0 109.40609,18.8661453 109.40609,42.138871 L109.40609,42.138871 Z M54.9765163,13.7188617 C54.9973347,13.742795 55.2624635,13.7585459 55.2863435,13.8055942 C55.3218572,13.875962 55.1840882,13.9367156 55.2140913,13.9941963 C55.2222554,14.0101518 55.2371548,14.0214025 55.2547076,14.0246754 C55.2971609,14.0336759 55.1212247,14.2071408 55.0967325,14.2443703 C55.0563202,14.3057376 55.1093868,14.4665199 55.2010287,14.4626333 C55.2943034,14.4589512 55.3539013,14.4018797 55.4416652,14.3002145 C55.4416652,14.3002145 55.6804649,14.166843 55.8412974,14.0330623 C55.9974356,13.9029636 56.315631,13.8655296 56.4331939,13.6431754 C56.497282,13.5220773 56.6136202,13.4437317 56.7095483,13.423276 C56.7507769,13.41448 56.7924138,13.4377996 56.8069051,13.4778929 C56.8197635,13.533328 57.5533069,13.2080814 57.5271818,13.0796192 C57.5043224,12.9603621 57.5722884,12.9484977 57.649235,12.9814315 C57.7025056,13.0039328 57.7469999,12.9875682 57.781085,12.9587256 C58.0015154,12.7744192 58.3354266,12.5510423 58.613618,12.6224329 C58.6807676,12.6396157 58.7517952,12.6300015 58.8118012,12.5958404 C59.0895844,12.4366945 59.1212202,12.5113581 59.0544788,12.5373369 C58.9820225,12.5653613 58.7789408,12.6392066 58.8197612,12.7050742 C58.8299663,12.7216433 58.8501725,12.7283937 58.8685417,12.7212342 C58.9877374,12.6739814 59.1122397,12.6492299 59.2402118,12.6471843 C59.4177808,12.644116 59.6802562,12.6148642 59.9145656,12.4902886 C59.9245666,12.4849701 59.9351799,12.4796517 59.9451809,12.4743332 C59.9472219,12.4733104 59.9494671,12.4722876 59.951304,12.4712648 C60.5066662,12.1887707 60.735873,12.0028278 60.8530276,12.0819916 C60.8889496,12.1065385 60.9089516,12.1486774 60.9052778,12.1924527 C60.9058901,12.1928619 60.9067065,12.193271 60.9075229,12.1938846 C60.9985525,12.2581157 61.0955011,12.1959302 61.2046958,12.1679058 C61.2046958,12.1679058 61.2934802,12.258934 61.6280038,12.2546383 C61.548608,12.4591959 65.0522269,11.6966051 67.2704099,9.85476819 C67.871491,9.35564759 68.5391094,8.89396102 69.2063195,8.47911816 C68.5952375,8.44597982 67.9802775,8.42797875 67.3610313,8.42797875 C64.9575234,8.42797875 62.6140217,8.68203932 60.3537936,9.16111328 C60.5152384,9.18422829 60.5017677,9.37998994 60.3986961,9.41578753 C60.1264237,9.51008859 59.817617,9.51315696 59.5884102,9.71157785 C59.5684082,9.7287607 59.5631015,9.75780788 59.5757559,9.78092289 C59.5884102,9.8040379 59.6153517,9.81528857 59.6408645,9.80771994 C59.6876039,9.79381002 59.7714899,9.76292182 59.9711019,9.68846284 C60.0060034,9.67537115 60.0482525,9.69950895 60.04315,9.73653389 C60.0407008,9.75064836 60.0317203,9.76271726 60.0184536,9.76844487 C59.9204846,9.81140198 59.8102693,9.83022128 59.71577,9.8803379 C59.6969926,9.89015666 59.6865834,9.9112261 59.6904613,9.93209098 C59.6996459,9.98261671 59.6543352,10.0808044 59.6843383,10.1092379 C59.6847465,10.1094424 59.6849506,10.109647 59.6853588,10.1100561 C59.6776029,10.1190566 58.7121994,10.7781413 58.3472646,10.8014609 C58.3466523,10.8014609 58.34604,10.8016654 58.3454277,10.8016654 C57.9078325,10.8215075 57.5033019,10.9976316 57.3830856,11.0970467 C57.2616448,11.197689 57.1297948,11.2833987 56.988556,11.3537665 C56.6942406,11.5006389 56.4309488,11.7501992 56.2588906,11.9375739 C56.1707184,12.0333069 56.3250197,12.0678771 56.4460523,12.1153345 C56.4460523,12.1153345 56.5289178,12.141927 56.4005375,12.1603372 C55.9166111,12.2266139 55.5014672,12.7738055 55.3759443,12.9568846 C55.3520644,12.9916594 55.3520644,13.0376849 55.3755361,13.0722551 C55.3761484,13.0734824 55.3771689,13.0745052 55.3779854,13.0757326 C55.1538811,13.2980867 55.1324504,13.3193607 54.9675358,13.6552443 C54.9575348,13.6763138 54.9610045,13.7014744 54.9765163,13.7188617 L54.9765163,13.7188617 Z M65.920886,20.9135626 C65.9198655,20.9049712 65.9251721,20.8969934 65.9335403,20.8945387 C65.9423167,20.8918795 65.9521136,20.8935159 65.9598695,20.8996527 C65.9653803,20.9041529 65.9715033,20.9086532 65.9761977,20.9119261 C66.0059966,20.9319728 66.0241617,20.9348366 66.0351832,20.9270634 C66.1009041,20.879606 66.1711153,20.8350124 66.2419388,20.7955328 C66.2799018,20.7744634 66.3025571,20.7317108 66.3237838,20.6486604 C66.3297027,20.6230907 66.3543991,20.4917647 66.1878517,20.3984865 C66.1868312,20.3980774 66.1856066,20.3972591 66.184586,20.3966455 C66.1709112,20.3888723 65.8614922,20.2293173 65.7739324,20.2775929 C65.7155591,20.3084811 65.7155591,20.3084811 65.6082014,20.2528414 C65.6043234,20.2368859 65.6102424,20.2205213 65.6228967,20.210498 C65.7451539,20.1159924 65.7449498,20.1145605 65.7425006,20.0877634 C65.7380104,20.0288508 65.7071909,19.9869165 65.6720853,19.947846 C65.6412659,19.9138895 65.6380003,19.8635683 65.6641254,19.8261342 C65.6647377,19.8255206 65.6649418,19.8249069 65.66535,19.8242932 C65.6888217,19.7923822 65.5663604,19.5291166 65.5649317,19.5272755 C65.5567676,19.518275 65.5524814,19.5135702 65.535541,19.514593 C65.4843113,19.5180704 65.4302242,19.5195024 65.3787904,19.5192978 C65.3724633,19.5192978 65.3640951,19.5203206 65.351849,19.5223662 C65.3504202,19.5225707 65.3489915,19.521957 65.3483792,19.5207297 C65.3455218,19.5156158 65.3451136,19.5096836 65.3465423,19.5041605 C65.3628705,19.4395203 65.2998029,19.3979951 65.2938839,19.3386734 C65.287965,19.278738 65.3042931,19.2198254 65.3104162,19.1607083 C65.3153147,19.1077278 65.3091916,19.0471788 65.2922511,18.9890844 C65.230204,18.7759354 65.240205,18.550922 65.3157229,18.3473872 C65.3473587,18.2627003 65.3910366,18.1812864 65.443695,18.1080547 C65.565544,17.9384765 65.0183459,17.9601596 64.9148661,17.96691 C64.9069061,17.9673191 64.8991502,17.9634325 64.8948641,17.9564775 C64.890782,17.9495226 64.8909861,17.9409312 64.8954764,17.9337716 C64.9220097,17.8936783 64.9254794,17.8413116 64.9628301,17.8065368 C65.0128352,17.7586703 65.0808012,17.743533 65.1379498,17.7083491 C65.264085,17.6293899 65.1585641,17.5807052 65.112437,17.5686363 C65.00263,17.5402028 64.8871082,17.5254746 64.7736273,17.5252701 C64.7305618,17.5252701 64.6874962,17.5312022 64.6436142,17.5477714 C64.6150399,17.5584084 64.5817712,17.594206 64.5480944,17.6410497 C64.479516,17.7369872 64.3986915,17.8222877 64.3062332,17.8957239 C64.3011307,17.8996105 64.2962322,17.9034971 64.2915379,17.9071791 C64.265821,17.9268167 64.2321441,17.9304987 64.2033657,17.9184298 C64.1864252,17.9112703 64.1674437,17.9112703 64.1505032,17.9182253 C64.1470335,17.9196572 64.1437679,17.9212936 64.1405022,17.9229301 C64.1090705,17.9394992 64.0855987,17.9640462 64.0686582,17.9916614 C64.0474316,18.0258226 64.0519219,18.070007 64.0792716,18.0994633 C64.1066213,18.1289196 64.1505032,18.1364882 64.1858129,18.1176689 C64.186017,18.1180781 64.1862211,18.1188963 64.1864252,18.11951 C64.1913237,18.1307606 64.1911196,18.1434432 64.1862211,18.1544893 C64.1656068,18.1996965 64.1594837,18.2491995 64.1409104,18.2948158 C64.1388694,18.2999298 64.1347874,18.3034073 64.1288684,18.3044301 C64.1207043,18.305862 64.1123361,18.3021799 64.1076418,18.2950204 C64.0845782,18.2590183 64.0735567,18.2588137 64.0574326,18.2620866 C64.0560039,18.2624957 64.0539629,18.2629049 64.0525342,18.2631094 C63.9874256,18.2766102 63.9417067,18.4296193 63.94436,18.4735992 C63.9453805,18.4887365 63.9498707,18.4993735 63.9570143,18.5071467 C64.0409003,18.5994021 64.048248,18.7376831 63.9741589,18.83853 C63.9741589,18.83853 63.9741589,18.83853 63.9739548,18.8387346 C63.9661989,18.849167 63.9594635,18.8600086 63.9537487,18.8708501 C63.9429313,18.8925332 63.9498707,18.9191257 63.9700769,18.9326265 C63.9906912,18.9461273 64.0174286,18.9422407 64.0333486,18.923626 C64.0525342,18.9011246 64.0770264,18.8720775 64.1088664,18.8340297 C64.1386653,18.7980276 64.1488704,18.7855496 64.1929565,18.7663212 C64.2274498,18.7513885 64.2629636,18.7376831 64.2986815,18.7260233 C64.3121522,18.7215231 64.3272558,18.7239777 64.3384814,18.7325692 C64.349707,18.7411606 64.3564424,18.7548659 64.3560342,18.769185 C64.3525644,18.8512126 64.3801182,18.9406043 64.2976609,19.0050399 C64.2505133,19.0422694 64.2133667,19.0713166 64.1852006,19.0952498 C64.1574427,19.1185694 64.1498909,19.1582536 64.1668314,19.1901646 C64.1841801,19.2222801 64.2211226,19.2378265 64.2560241,19.2278032 C64.2560241,19.2278032 64.2560241,19.2278032 64.2603102,19.230667 C64.2633718,19.2329171 64.2656169,19.23619 64.2664333,19.2400766 C64.2894969,19.3374461 64.2925584,19.3374461 64.4209387,19.2597142 C64.4250207,19.2572595 64.4297151,19.2566458 64.4342053,19.2578731 C64.4364505,19.2584868 64.4382874,19.2599187 64.4393079,19.2619643 C64.4568607,19.2961254 64.4850268,19.3233316 64.5195201,19.3399008 C64.56728,19.3632203 64.6029979,19.4076093 64.6144276,19.4616125 C64.6150399,19.4646809 64.6158563,19.4679538 64.6166727,19.4716359 C64.6176932,19.4747042 64.6185096,19.4777726 64.6195302,19.480841 C64.663208,19.6148262 64.6278983,19.7616986 64.5285006,19.8611136 C64.4288987,19.9605286 64.2819451,19.9950988 64.1486663,19.9505053 L64.1482581,19.9505053 C64.126011,19.9431412 64.1015187,19.9513235 64.088048,19.9707565 C64.0745772,19.9901894 64.0758018,20.0159637 64.0907013,20.0341693 C64.1037638,20.0505339 64.1194797,20.0656712 64.1190715,20.0883771 C64.1168264,20.1716321 64.012326,20.1403347 63.9798738,20.1957699 C63.9794656,20.1965881 63.9790574,20.1967927 63.9786492,20.1974063 C63.9766081,20.2012929 63.9751794,20.2057932 63.9745671,20.2107026 C63.9735466,20.2213396 63.9778328,20.2319766 63.9857927,20.2393406 C63.9937527,20.2467047 64.0047742,20.249364 64.0153876,20.2471138 C64.0633516,20.2364768 64.102131,20.1959744 64.1527484,20.1916787 C64.2482682,20.1853374 64.1762201,20.4252835 64.1447884,20.4604674 C64.1098869,20.4995379 63.868434,20.5854521 63.7918956,20.5962937 C63.7429111,20.6038623 63.7102547,20.6083626 63.6939266,20.6259546 C63.6786189,20.6433419 63.6686179,20.7439843 63.7363798,20.7767135 C63.8396555,20.8260119 63.9357877,20.7355974 64.038247,20.7621899 L64.0384511,20.7621899 C64.1353997,20.7875551 64.2231636,20.8399218 64.291742,20.9125398 C64.2974568,20.9188811 64.3048045,20.9227677 64.3121522,20.9256315 C64.3454209,20.9389277 64.3827716,20.938314 64.415632,20.9241996 C64.423592,20.9207221 64.431552,20.9160173 64.4380833,20.9100851 C64.4652289,20.8861519 64.4935991,20.8779695 64.5227857,20.8769468 C64.5446246,20.8761285 64.5650349,20.8900384 64.5719743,20.9111079 C64.5791179,20.9323819 64.5719743,20.9554969 64.5536051,20.9685886 C64.4789037,21.0221827 64.4039982,21.076595 64.299702,21.0647307 C64.2441862,21.0583894 64.1878539,21.0579803 64.1323381,21.0639124 C63.9613005,21.0821181 63.7998556,21.1582135 63.6761697,21.2825845 C63.6347369,21.3241097 63.5908549,21.3682942 63.5514632,21.4090011 C63.5302366,21.4308888 63.5283996,21.4650499 63.5473812,21.4889832 C63.5663627,21.5129164 63.6000395,21.5188486 63.6259605,21.5028931 C63.6439215,21.4920515 63.6637194,21.4797781 63.6855584,21.4664818 C63.758627,21.42107 63.8931303,21.3662486 63.9661989,21.5073934 C63.9672194,21.5075979 63.968444,21.508007 63.9694646,21.5082116 C63.980282,21.5114845 63.9919158,21.5092344 64.0011004,21.502484 C64.0998859,21.4282296 64.1498909,21.2895395 64.2945994,21.2770615 C64.3974669,21.2690837 64.4740053,21.3699306 64.5795261,21.3478384 C64.6977013,21.3230869 64.7956704,21.2322634 64.9238466,21.2392183 C64.9711983,21.2418776 65.1014155,21.2766524 65.1140699,21.284221 C65.1497877,21.3061087 65.1497877,21.3061087 65.3418479,21.3093816 C65.4226724,21.3108135 65.4812498,21.3764765 65.5577881,21.3885454 C65.6508587,21.403069 65.7361734,21.3476339 65.8276112,21.355407 L65.8286318,21.355407 L65.8294482,21.355407 C65.8318974,21.355407 66.1064149,21.3030403 66.1011082,21.1893063 C66.1011082,21.1870561 66.0998836,21.1850105 66.0978426,21.1837832 C66.096618,21.1831695 66.0955975,21.1823513 66.0943729,21.1817376 C65.9980366,21.124666 65.9339485,21.0248419 65.920886,20.9135626 L65.920886,20.9135626 Z M63.5018664,19.8782964 C63.5837113,19.8332937 63.5118674,19.7465613 63.5332981,19.683353 C63.5898344,19.5147975 63.6275933,19.5102973 63.6943348,19.5008876 C63.7590352,19.491478 63.8194494,19.4832957 63.8419007,19.4485209 C63.9476256,19.2920343 63.5739144,18.8422121 63.3404215,18.902352 C63.0977439,18.9649466 62.9024181,19.3196496 62.8211854,19.3147402 C62.7183179,19.3092171 62.6713744,19.3059442 62.6023878,19.360152 C62.5491172,19.401268 62.5423818,19.4693857 62.50299,19.5184796 C62.4568629,19.5784149 62.3954282,19.6250541 62.3480765,19.6843758 C62.3084806,19.7330605 62.2939894,19.7760176 62.3495052,19.8263388 C62.3905297,19.8623409 62.4131851,19.8825921 62.2925606,20.0390787 C62.1927547,20.1677455 62.0280442,20.2360677 61.9586494,20.3943953 C61.933953,20.451876 61.9374228,20.5660192 61.9455869,20.6116355 C61.9772227,20.7767135 62.2327587,20.7102323 62.3866518,20.6435465 C62.5264618,20.5827929 62.656679,20.4989243 62.8048572,20.458831 C62.8060819,20.4584219 62.8081229,20.4580127 62.8091434,20.4576036 C63.0132456,20.4015548 63.191631,20.45699 63.2530657,20.3794626 C63.3130718,20.3027535 63.4159393,20.1634498 63.4641074,20.0517613 C63.487171,19.9963262 63.4283896,19.9179806 63.5018664,19.8782964 L63.5018664,19.8782964 Z M45.5157657,54.4567175 C45.4161638,53.6571018 42.8732541,50.7386781 42.1529774,50.1959867 C41.5843485,49.7674385 41.173899,49.7643702 41.173899,49.7633474 C41.2067594,49.4057806 41.0687863,49.0533278 40.8022288,48.8135863 C40.7014023,48.7231718 40.6267009,48.6030965 40.5522036,48.4824075 C40.4523976,48.3201933 40.2758492,48.2218011 40.08583,48.221392 C39.8956067,48.221392 39.7186501,48.3195796 39.6190482,48.4817938 C39.6190482,48.4817938 39.61864,48.4819984 39.61864,48.482203 C39.7894736,47.9112826 39.7974335,47.8846901 39.3463676,47.3295207 C39.1043024,47.0320939 39.0728706,47.0605275 39.3649409,46.5121085 C39.406986,45.7636321 37.9454099,43.3754218 36.6503813,41.9124257 C36.6083362,41.8647637 36.5456768,41.8396032 36.4691385,41.8539222 C36.3366762,41.7315967 35.6959993,39.3703881 35.5539441,38.8160369 C35.5474128,38.7894444 35.5533318,38.76142 35.5708846,38.740146 C35.6837531,38.6041152 35.7288597,38.4247182 35.6945705,38.2514578 C35.6662003,38.1080629 35.6104804,37.9413485 35.601704,37.795908 C35.5853758,37.5265056 35.3331055,37.3059925 35.2879989,37.3379035 C35.2177877,37.387611 35.1430863,37.3929295 35.0771613,37.3659279 C35.0098076,37.3385172 34.9595984,37.2798091 34.9455154,37.1959405 C34.8910201,36.9044459 34.6377292,36.6941606 34.341781,36.6945698 C34.2236058,36.6945698 34.2005422,36.6694092 34.1811525,36.5836995 C33.8829592,38.3911707 33.724984,40.2463038 33.724984,42.138871 C33.724984,51.1299969 37.228807,59.2922553 42.9426489,65.3332511 C42.6840514,64.9961401 42.4054518,64.3973999 42.4032067,64.3073946 C42.3960631,64.0729715 42.3487114,63.8385485 42.2629885,63.6202855 C42.1905322,63.4349563 42.1058297,63.2524909 42.0221478,63.0702301 C41.7394662,62.452466 43.0095944,62.349369 43.3622831,61.7694481 C43.3624872,61.769039 43.3624872,61.7688344 43.3626913,61.7684253 C43.3894287,61.7148312 43.6025114,61.6874205 43.8582515,61.8707041 C44.0623537,62.0169628 44.3580978,61.6788291 44.3307481,61.5607993 C44.2462498,61.1819586 44.2454334,61.1203868 44.2921728,60.7763208 C44.3713645,60.1882177 44.2113483,58.7309491 44.1423618,58.5343693 C43.9098893,57.8689433 43.8607007,57.5320369 43.8574351,57.3706409 C43.8551899,57.2526112 44.1715484,57.1626058 44.2284929,56.9652077 C44.3438107,56.5667294 45.0222465,55.8274582 45.2322677,55.4715279 C45.4147351,55.1622368 45.56026,54.8128524 45.5157657,54.4567175 L45.5157657,54.4567175 Z M51.9874391,12.8120578 C51.9315151,12.7183704 51.8180343,12.676027 51.7143504,12.7099835 C51.64169,12.7341213 51.5035128,12.7807605 51.4618759,12.7167339 C51.4477928,12.694028 51.4471805,12.6651854 51.4608554,12.6420704 C51.4912666,12.590931 51.5737239,12.484561 51.5806634,12.4360809 C51.5861742,12.3955785 51.6069926,12.3585535 51.6382202,12.331961 C51.6506705,12.3215286 51.6653658,12.3145736 51.6782243,12.3049594 C48.391362,14.0426765 45.4267771,16.3087659 42.8979505,18.9925619 C42.9083597,18.9901072 42.9191771,18.9896981 42.9299945,18.9925619 C43.3296267,19.1040458 43.2998278,19.0171088 43.641699,18.6028796 C43.8402905,18.3623199 44.2003268,18.2725191 44.4001429,18.2023558 C44.599959,18.1321925 44.9316251,18.0998724 44.9320333,18.0998724 C45.1245017,18.0638703 45.6765982,18.1890596 45.8370226,18.0589609 C45.9713218,17.9499317 45.7992637,17.9122931 45.8782512,17.7934451 C45.9539732,17.6801202 46.0182654,17.5590221 46.0699032,17.4330146 C46.1139893,17.3260309 46.2458393,17.2941199 46.3436043,17.23398 C46.5099476,17.1314966 46.3493192,17.1319057 46.3172751,17.0772889 C46.2925788,17.03515 46.3197244,16.8817318 46.3813632,16.8712993 C46.3821796,16.8712993 46.3832001,16.8715039 46.3840166,16.8723221 C46.4715764,16.9531224 46.5938336,16.9860562 46.7099678,16.9592591 C46.8112025,16.9361441 46.8471245,16.9003465 46.8763111,16.8383655 C46.8965172,16.795613 46.9336639,16.7632929 46.9791787,16.7502012 C46.979791,16.7499967 46.9806074,16.7497921 46.9810156,16.7495875 C47.2543085,16.0913211 46.0388797,16.4640251 46.0384715,16.4632069 C45.9894869,16.3656329 46.6799648,16.1449152 46.7877308,16.1138224 C46.7883431,16.1142316 46.7889554,16.1146407 46.7893636,16.1150498 C46.79018,16.115868 46.7912005,16.1164817 46.7924251,16.1168908 C46.8567173,16.1338691 46.9148864,16.1244594 46.9697899,16.1027763 C47.2981904,15.9734959 47.6690442,16.135301 47.798445,16.4642296 L47.798445,16.4646388 C47.8335506,16.5532122 47.9080479,16.6196934 47.9996898,16.6442404 C48.1076599,16.673083 48.2152217,16.7041757 48.3297231,16.6612186 C48.9193744,16.4409101 49.0908203,16.6299213 49.5829108,16.4110447 C49.5843395,16.4106356 49.5859723,16.4098173 49.5871969,16.4092036 C50.2286902,16.1222093 50.2570604,14.6962381 51.1289852,13.9129869 C51.214504,13.8362778 51.3073705,13.76591 51.4047273,13.7043382 C51.5641311,13.6034912 51.6682232,13.4476183 51.779459,13.2993141 C51.8325255,13.2287417 51.8921234,13.1589875 51.9537623,13.0957792 C52.0278514,13.0200929 52.0419344,12.9036996 51.9874391,12.8120578 L51.9874391,12.8120578 Z M99.8069584,33.252274 C99.8298179,33.3222327 99.8526773,33.3991464 99.8755368,33.4738099 C97.1303618,23.0828962 89.5661291,14.6673955 79.7194212,10.7722091 C79.7875914,10.8266215 79.824738,10.9133539 79.8104508,11.0033593 C79.7837134,11.1704828 79.5885917,11.2179402 79.5734881,11.257829 C79.5269528,11.380359 79.8420867,11.5413458 79.934545,11.634215 C79.9855705,11.6855589 79.9874075,11.7682002 79.9388311,11.8217943 C79.9378106,11.8228171 79.9359737,11.8234308 79.934545,11.8230217 C79.778815,11.7853831 79.6143086,11.8254764 79.493276,11.930619 C79.3748967,12.0333069 79.2073287,12.1055158 79.1087474,12.141927 C79.0507823,12.163201 78.9964911,12.1965439 78.9511804,12.2388873 C78.9511804,12.2390919 78.9509763,12.2392964 78.9507722,12.239501 C78.8960728,12.2229318 78.8379037,12.2247728 78.784633,12.2444104 C78.5646108,12.3256198 78.4386797,12.7433264 78.4839904,12.8973583 C78.5009309,12.9574983 78.4888889,13.0237749 78.4486808,13.0740961 C78.397247,13.1385318 78.3111158,13.1634878 78.233557,13.1368953 C78.187634,13.1211444 78.0592537,13.2311964 78.1219131,13.2790629 C78.195594,13.3349071 78.0943593,13.3760232 78.0188415,13.4290036 C77.9816949,13.4549824 77.9339349,13.4639829 77.8876037,13.4498685 C77.6192093,13.36825 77.6349252,13.300746 77.5528761,13.5106221 C77.5140966,13.6092189 77.460826,13.7022926 77.3953091,13.785343 C77.3532641,13.8383234 77.3581625,13.914828 77.4071471,13.9620808 C77.8026972,14.3439899 77.2328438,14.2826226 77.0287415,14.189958 C76.8436208,14.1058848 76.7358548,14.4209035 77.0787466,14.4223354 C77.1722254,14.4229491 77.2616222,14.4630424 77.3244857,14.5330011 C77.3242816,14.5327965 77.3244857,14.5330011 77.3244857,14.5330011 C77.50083,14.7285582 77.0965035,14.6643271 76.8468865,14.5761628 C76.6348242,14.5010901 76.4331712,14.3900153 76.2562146,14.2498933 C76.1445707,14.1609108 76.1019133,14.0103564 76.1504897,13.875962 C76.1992701,13.7415676 76.3282627,13.6534033 76.4711343,13.6572899 C76.6770734,13.662813 76.8530095,13.5098039 76.8768895,13.3048371 C76.9005653,13.0998704 76.764021,12.9108591 76.5625721,12.8685157 C76.0672159,12.7650095 75.5167522,12.8288315 75.0581345,12.615887 C74.6623803,12.4323988 74.3337757,12.4653326 74.2333574,12.3315519 C74.1900878,12.2734576 74.1717186,12.2004305 74.1831483,12.1288353 L74.1831483,12.1286308 C73.9700656,12.0873101 73.8349499,12.0613313 73.7435121,12.0427166 C73.6557481,12.02492 73.3877619,12.0204198 73.0213984,12.1353812 C72.2309105,12.3865779 71.481243,13.1215535 71.481243,13.1215535 L71.4810389,13.1215535 C71.4810389,13.1215535 71.3308196,13.3797052 71.1848865,13.5468288 C71.052016,13.6994288 70.9509854,13.8835306 70.8028072,14.021607 C70.7442298,14.0758148 70.704634,14.1470009 70.6889181,14.2251419 C70.6889181,14.2253464 70.688714,14.2257555 70.6885099,14.2257555 C70.6872853,14.2259601 70.686673,14.2261647 70.6860607,14.2263692 C70.6087059,14.2484614 70.5484958,14.3094196 70.526861,14.386947 C70.4303206,14.7306038 70.1611098,15.2424069 68.7146373,15.8517841 C68.7144332,15.8517841 68.7142291,15.8519887 68.714025,15.8519887 C68.2894923,16.0317948 68.0221184,16.4587066 68.0455902,16.9201886 C68.0690619,17.3816706 68.3776645,17.7797397 68.8181171,17.915566 C69.3651111,18.084326 69.4906339,17.4782218 70.1092678,17.6629373 C70.3419443,17.7324869 70.5278815,17.9088156 70.6097265,18.1379201 C70.7109612,18.4208233 70.8499548,18.5871287 70.8628132,18.9489911 C70.9862951,19.0725439 71.3483724,19.3452193 71.3906216,19.1600946 C71.493285,18.7209094 71.9370033,19.0091311 72.1278388,18.6450185 C72.2913247,18.3320453 72.0459938,18.0027076 72.1658019,17.6876888 C72.1666183,17.6852341 72.1676388,17.682984 72.1686593,17.6805293 C72.3196949,17.31028 72.3584744,16.9085288 72.2825483,16.5159827 C72.2472386,16.3331082 72.2935698,16.0557281 72.3811297,15.5287876 C72.4160312,15.3234118 72.818929,15.2164281 72.914857,15.0650555 C73.0822209,14.8032217 72.8026008,14.3024647 73.2199899,14.2087773 C73.4287864,14.1621381 73.8037222,14.2588939 73.8527068,14.4755204 C73.8702596,14.5524341 73.8520945,14.6332343 73.803314,14.6952153 C73.6849347,14.8463834 73.6320723,15.0538048 73.5263473,15.2156099 C73.3132646,15.5416748 73.2669334,15.9518128 73.4030696,16.3171527 C73.5202242,16.6321715 73.709427,16.9171202 74.0092532,16.941258 C74.0953843,16.948213 74.1817196,16.9265299 74.2541759,16.8790725 C74.2545841,16.878868 74.2547882,16.8786634 74.2551964,16.8784588 C74.2558087,16.8782543 74.256421,16.8778452 74.2568292,16.8776406 C74.2578497,16.8774361 74.2580538,16.8774361 74.2588702,16.8770269 L74.6889136,16.7260634 C75.045072,16.6010787 75.4300088,16.5765318 75.7988215,16.6569229 L75.7992297,16.6569229 C75.8343353,16.6644916 75.8620932,16.6912886 75.8714819,16.726268 C75.8806665,16.7610428 75.8692368,16.7982723 75.8422953,16.8220009 C75.3963319,17.2198655 75.3114254,16.9555771 74.8426026,17.0416958 C74.6819741,17.0705385 74.5589005,17.200228 74.5384903,17.3624422 C74.519917,17.5084963 74.5886994,17.6504593 74.7107525,17.7269639 C74.7348366,17.7421011 74.7491238,17.7695119 74.7466745,17.7981499 C74.7466745,17.7989682 74.7464704,17.7997864 74.7464704,17.8006046 C74.7362653,17.9425676 74.6474808,18.0669386 74.5168554,18.1227829 C74.418274,18.1649218 74.3080588,18.1624671 74.2131513,18.11951 C74.1394704,18.0863716 74.0539516,18.0933266 73.9865978,18.1379201 C73.8522986,18.2266982 73.9002626,18.2911338 73.8741375,18.4087544 C73.8325006,18.5967429 73.843114,18.7929137 73.905161,18.97497 C73.9053651,18.9751745 73.9053651,18.9751745 73.9053651,18.9753791 C74.0074163,19.2744423 73.455932,19.8103833 73.2326442,19.7690627 C72.7793331,19.6853986 72.3107144,19.7571983 71.9037346,19.9740294 C71.7112662,20.0765128 71.475324,20.0460337 71.3148997,19.8981385 C71.313675,19.8973203 71.3128586,19.8965021 71.3120422,19.8954793 C71.2048886,19.7972916 71.3067356,19.7535163 71.1724363,19.6692385 C71.1444743,19.651442 70.4362396,19.9476415 70.4048078,19.9588921 C70.3723556,19.9707565 70.3364336,19.9668699 70.3070429,19.9484597 C70.2776521,19.9300495 70.2586706,19.8991613 70.255405,19.8645911 C70.2549968,19.8633637 70.2549968,19.8621364 70.2547927,19.8611136 C70.2300963,19.656556 69.311024,19.6825348 70.0280351,18.8851692 C70.0292597,18.8837372 70.0300761,18.8825099 70.0315048,18.8812826 C70.105594,18.7994595 70.1390667,18.6875665 70.1215139,18.5781282 C70.0929396,18.3952536 70.1304944,18.2217888 69.9610896,18.1501936 C69.9604773,18.1508073 69.959865,18.1514209 69.9592527,18.1520346 C69.5839087,18.5449898 69.4045028,19.088704 69.4732853,19.628327 C69.5194124,20.2282945 69.2326487,20.1274476 69.0140552,20.1211063 C68.9222092,20.1184471 68.8342412,20.1571085 68.774031,20.2266581 C68.7734187,20.2276809 68.7726023,20.2287036 68.7717859,20.2295219 C68.6844301,20.2295219 68.560336,20.2295219 68.3517435,20.2491594 C68.2623467,20.2575463 68.1807058,20.3031626 68.1268229,20.3741441 C68.1209039,20.3819173 68.1184547,20.3917361 68.1198834,20.4011457 C68.1274352,20.4512623 68.0953911,20.4987197 68.0459984,20.5103795 C67.8845535,20.5484272 67.7373958,20.6259546 67.6147304,20.7372339 C67.3289872,20.996613 67.1832582,21.1052331 66.8840444,21.2725612 C66.6742273,21.3893636 66.4897189,21.5405317 66.3329684,21.7221789 C66.2672474,21.7980697 66.1270292,21.8815293 65.7963836,22.0693132 C65.7659724,22.086496 65.7439293,22.1157477 65.7359693,22.1501134 C65.7194371,22.2219131 65.6602474,22.2759164 65.587587,22.2865534 C65.2932716,22.3291013 65.2083651,22.2573016 65.0391643,22.1460223 C64.9524209,22.0889507 64.8850672,22.2075941 64.9069061,22.2851215 C64.9073143,22.2863488 64.9077225,22.2875761 64.9079266,22.2890081 C64.928745,22.3632625 64.9142538,22.4428354 64.8693513,22.50543 C64.8242447,22.5680247 64.7532171,22.606686 64.6764747,22.6103681 C64.473393,22.6201868 64.2705153,22.5770252 64.0888644,22.4853834 C64.0727403,22.4772011 64.054167,22.4757692 64.0372265,22.4812922 C63.7420947,22.5757978 63.5686078,22.9300917 63.6418805,22.9376603 C64.1505032,22.9930954 64.1419309,23.0816689 64.3460332,23.2117675 C64.5876902,23.3651857 64.4705355,23.8389412 64.8383277,23.8788299 C64.8401647,23.8790345 64.8424098,23.879239 64.8442467,23.8794436 C64.8899656,23.8833302 64.9279286,24.2564433 64.9365009,24.303287 C64.942624,24.3380618 64.9279286,24.3732457 64.898742,24.3928832 L64.8985379,24.3928832 C64.7885268,24.4659103 64.7152541,24.5827127 64.6979054,24.7136296 C64.6646367,24.9613489 64.6899454,25.2248191 64.5240103,25.4371499 C64.4537991,25.5271553 64.2935789,25.6920287 64.1053966,25.620229 C63.9041518,25.5435199 63.6884158,25.4979035 63.4730879,25.4876756 C62.5842227,25.4457413 62.0637621,25.2567301 61.8027153,25.1239722 C61.6112674,25.0263982 61.3773663,25.0728328 61.237148,25.2364789 C61.2373521,25.2362743 61.237148,25.2364789 61.237148,25.2364789 C61.1746927,25.2391381 61.099379,25.2424111 61.0269227,25.2462977 C60.8958891,25.2536617 60.8034308,25.3778282 60.8342502,25.5056767 C60.903645,25.7951258 60.9042573,26.0888705 60.566264,26.9553766 C60.5532015,26.9889241 60.5350364,27.034745 60.5180959,27.0664514 C60.408493,27.271009 60.0133511,27.6717374 60.1094832,27.7781074 C60.1203006,27.7901763 60.1354042,27.7969267 60.1511201,27.7971312 C60.2333733,27.7989723 60.3064419,27.8507253 60.3358326,27.9278436 C60.3609372,27.993302 60.3656315,28.0651017 60.3484869,28.1332194 C60.320729,28.2461352 60.1978595,28.6397041 60.2470481,28.7370735 C60.2750101,28.7916904 60.3241988,28.8321928 60.3829802,28.8491711 C60.4689072,28.8745363 60.5270764,28.9428585 60.6009614,28.9880657 C60.6562731,29.0203859 60.8360871,28.9420403 60.9434449,28.8956057 C61.0230448,28.8618537 61.0718252,28.839966 61.2475572,29.0424781 C61.4104308,29.2290346 61.2834792,29.6608558 61.6273915,29.6682199 C61.7210744,29.6688335 61.7743451,29.5778054 61.7976127,29.5233931 C61.8225132,29.4630486 61.8225132,29.4630486 62.4854373,29.3182218 C62.7791404,29.2535815 63.0640671,29.4395244 63.3585866,29.3507464 C63.5843237,29.2814014 63.5957534,28.9827472 63.8257766,28.9174934 C63.9784451,28.873718 64.1411145,28.958814 64.2913338,28.8810821 C64.3721583,28.8368977 64.2980691,28.5893829 64.3868536,28.5108328 C64.3870577,28.5106282 64.3874659,28.5104237 64.38767,28.5102191 C64.5244185,28.3923939 64.5785056,28.2042009 64.5246226,28.0315543 C64.4993139,27.948913 64.5044165,27.9235479 64.5170708,27.8646353 C64.5317662,27.7932447 64.7487269,27.6688736 64.8730251,27.3824929 C64.8836384,27.3581506 64.8958846,27.3356492 64.9122128,27.3207165 C65.3177639,26.9488308 65.8678194,26.8616892 66.3278658,26.5980144 C66.7317841,26.3660461 66.450123,25.7411225 66.92711,25.5510885 C67.3685831,25.375169 67.6961671,25.9890464 68.1494782,25.7290536 C68.6305472,25.4541282 69.2295872,25.1112896 69.3555183,25.1053574 C69.4865519,25.0992207 69.6049312,25.1319499 69.704329,25.1775663 C69.856181,25.247525 69.9847654,25.3606454 70.0731417,25.5030175 C70.5095123,26.2058775 71.3412288,26.5045316 71.848627,27.1345691 C71.924553,27.2290747 72.3113267,27.4602248 72.4584844,27.5987103 C72.6972841,27.8224964 72.5603315,27.5314109 72.7679034,27.8908186 C72.7689239,27.8924551 72.7699444,27.8942961 72.770965,27.8959326 C72.8721997,28.0532374 73.0509932,28.3310267 72.8819966,28.4024173 C72.7636173,28.4517157 72.7646378,28.4877178 72.7662706,28.5286293 C72.7687198,28.6196575 72.6923856,28.7039352 72.7474932,28.7982363 C72.763005,28.8248288 72.8232151,28.9070609 72.950779,28.8448754 C73.1018147,28.7671435 73.0460948,28.7393237 73.1063049,28.6223167 C73.2544831,28.3244808 73.2499929,28.3070934 73.246319,28.3077071 C73.2973446,28.2710913 73.3928644,28.3009567 73.4087844,28.2138151 C73.4481762,28.0059846 73.3026513,27.9362304 73.2069273,27.8910232 C73.1459008,27.8609532 73.0318076,27.80695 73.100386,27.6295986 C73.1020188,27.6250983 73.1040598,27.6203935 73.1061008,27.6160977 C73.1067131,27.6144613 73.1075295,27.6130294 73.1081418,27.6113929 C73.180394,27.4553155 73.3626573,27.3851522 73.5206324,27.4520425 C73.6359502,27.5015455 73.7251429,27.5256833 73.7678002,27.6451449 C73.7755561,27.666828 73.7802505,27.6874884 73.7794341,27.7036484 C73.7769848,27.7560152 73.775352,27.8053136 73.7984156,27.8259739 C73.8304596,27.8552256 73.9396543,27.8306787 73.9696573,27.7748345 C73.9874142,27.7425144 74.0090491,27.6353262 74.0078245,27.6017787 L74.0078245,27.5999377 C74.0078245,27.5987103 74.0076204,27.5972784 74.0072122,27.5958465 C74.0065998,27.5907326 74.0043547,27.5858232 74.0017014,27.581323 C73.7169788,27.1343645 73.1867212,27.0999989 72.777088,26.8637348 C72.731165,26.8371423 72.7029989,26.7911168 72.6976923,26.7416139 C72.6866707,26.6391305 72.5999273,26.5618077 72.497468,26.5624214 C72.2464222,26.5650807 72.0096636,26.4421415 71.8669962,26.2345155 L71.0075217,24.9809864 C70.9713956,24.9286197 70.9375146,24.8737982 70.906287,24.8177494 C70.8501589,24.7154706 70.8987352,24.5898722 71.0034397,24.5497789 C71.0099709,24.5471197 71.0167063,24.5450741 71.0238499,24.542824 C71.1901932,24.4929119 71.3689868,24.5583704 71.4640984,24.7038108 C71.5116542,24.7762242 71.5588018,24.8580473 71.6453412,24.8525242 C71.7498415,24.8459784 71.852709,24.8760483 71.9374115,24.9378248 L73.4151116,26.017889 C73.4157239,26.0182981 73.4163362,26.0187072 73.4169485,26.0191164 C73.4169485,26.0191164 73.5426755,26.0459134 73.7316741,26.1721255 C73.7722905,26.1993316 73.8198463,26.2120142 73.8667898,26.2101732 C73.9404707,26.2071048 74.0131311,26.2312426 74.0710962,26.2780863 C74.2952004,26.4593244 74.4395007,26.720749 74.4735857,27.0075388 C74.4886893,27.1355919 74.4984862,27.2523943 74.5046093,27.3354447 L74.5046093,27.3358538 C74.5123652,27.4426329 74.5674728,27.5404114 74.6546244,27.6023924 C74.6944244,27.6306213 74.7450417,27.6688736 74.773616,27.698739 C74.8097421,27.7371959 74.8162734,27.7484465 74.8838312,27.8634079 C74.9111809,27.9110698 75.0836473,28.0648972 75.0995673,28.078398 C75.1003837,28.0790117 75.100996,28.0794208 75.1018124,28.080239 C75.108956,28.0863757 75.1283457,28.0986492 75.1595733,28.0992629 L75.1638595,28.0992629 C75.2169261,28.1002856 75.2671352,28.0781934 75.3189772,28.0812618 C75.4787892,28.0906714 75.7184052,28.2940017 75.9023013,28.2023599 C75.9188336,28.1941776 76.111302,28.0816709 76.111302,28.0816709 L76.1143636,28.0796253 C76.5609392,27.8732267 76.009455,27.6629414 75.9912899,27.4583838 C75.9849628,27.384334 76.0121083,27.3305353 76.0610929,27.2969879 C76.1074241,27.265486 76.1664096,27.2581219 76.2266198,27.2863509 C76.2605008,27.3014881 76.2998925,27.297397 76.3303037,27.2759184 C76.3305078,27.2759184 76.3307119,27.2757139 76.3307119,27.2757139 C76.3670421,27.2499396 76.3921467,27.2114828 76.4011272,27.1677074 C76.4497035,26.9326707 76.6901359,26.8641439 76.9270986,26.8641439 C77.1248737,26.8641439 77.3201995,26.9144651 77.4926659,27.0106072 C77.5632853,27.0498822 77.6432934,27.068497 77.7251384,27.0637922 L77.7261589,27.0637922 C77.8800519,27.0549962 78.0261891,27.0018112 78.1502833,26.9103739 C78.2084524,26.8676214 78.0763983,27.0257444 77.7845321,27.1368192 C77.7820829,27.1376375 77.7796336,27.1386602 77.7775926,27.139683 C77.6557436,27.1895951 77.588594,27.3198983 77.6179847,27.4483605 C77.6769702,27.7061031 78.2133509,27.9611865 77.8624991,28.2925698 C77.858213,28.2968655 77.8539269,28.3007521 77.8496407,28.3044342 C77.8500489,28.3046387 77.8506612,28.3048433 77.8508653,28.3050478 C78.0463953,28.3846207 78.2092688,28.5249473 78.3172389,28.7063899 C78.6729891,29.3036982 79.8631092,29.4908684 79.9680177,29.2363987 C79.9684259,29.2353759 79.9688341,29.2345577 79.9690383,29.2335349 C80.0214925,29.0968904 80.174161,29.0283636 80.3107054,29.0803212 C80.5821613,29.1834183 80.8252471,29.3867486 81.1371153,29.3550421 C81.3140719,29.3366319 81.4430645,29.2713781 81.5483813,29.180759 C81.841268,28.9285395 82.2070192,28.7753258 82.591956,28.7450513 L82.5923642,28.7450513 C82.5956298,28.7448467 82.5988955,28.7460741 82.6011406,28.7485288 C82.6035898,28.751188 82.6046103,28.7544609 82.603998,28.7577339 C82.410305,29.8969153 83.6755347,31.1614905 82.4276537,32.1949156 C82.3290723,32.2767387 82.1529321,32.3178548 82.027001,32.3403561 C80.9013772,32.5397998 79.7612622,32.361221 78.6315563,32.4377256 C77.9786333,32.4821146 77.8845422,32.2476915 77.68044,32.2440095 L77.6771743,32.2440095 L77.6714595,32.2440095 C77.4512332,32.2485097 77.4091881,32.2487143 77.0807876,32.1736417 C76.8766854,32.1270025 76.3307119,31.3421149 75.5871675,31.9488328 C75.3740848,32.1231159 75.2469291,32.3491521 75.2532563,32.4790462 C75.3459187,34.3421571 73.0567081,32.9720301 72.8873032,32.7674724 C72.6264606,32.4547038 72.2782622,32.2260084 71.8872023,32.112888 C71.4571589,31.9881079 70.938331,31.8189387 70.6109511,31.6475194 C70.3627628,31.5176253 70.0623243,31.4384615 69.9353727,31.4319157 C69.8894497,31.4243471 69.8667943,31.1981063 70.0070126,31.0565525 C70.3768458,30.6828257 70.4923677,30.5324758 70.3748048,30.3342595 C70.065794,29.8132512 70.2692839,29.8582539 69.9968075,29.505392 C69.995787,29.5043692 69.9949705,29.5031418 69.9941541,29.5019145 C69.8978179,29.377748 69.7465781,29.3096303 69.5902358,29.3196537 C64.9660957,29.6150349 63.9708933,29.7494292 63.0585563,30.1877962 C62.9777318,30.2256394 62.8130213,30.3048032 62.5552402,30.1910691 C62.3578734,30.103723 62.1345855,30.0949271 61.9310956,30.1665222 L61.9308915,30.1665222 C61.6316776,29.9685104 61.2398014,29.988148 60.9618141,30.2145933 L59.4555397,31.4411208 C59.3034835,31.5648782 59.1702048,31.7146143 59.064888,31.8805106 C58.7928197,32.3106953 58.8105766,32.6330781 58.8179243,32.7881328 C58.8434371,33.2715024 57.4639101,34.1621463 56.7350611,34.0793005 C56.7340406,34.0790959 56.7332242,34.0790959 56.7317954,34.0790959 L56.7317954,34.0782777 C56.397476,34.2130812 56.1098959,34.3302927 54.4344208,36.6718639 C53.5139197,37.957304 53.5139197,37.957304 53.6996527,38.3138479 C53.7994587,38.5053139 54.0029486,38.894587 53.8496679,39.9619687 C53.8400751,40.0309046 53.8261961,40.1010679 53.8094597,40.1695947 C53.8014997,40.2015057 53.792111,40.2348486 53.7827223,40.266555 L53.1379634,42.4144101 C52.957537,43.0145822 53.0759163,43.6675301 53.4561588,44.1654234 C53.4563629,44.1656279 53.4563629,44.1658325 53.456567,44.1658325 C53.458608,44.1689008 53.4604449,44.1713555 53.4618736,44.1746285 L53.602296,44.4401443 C53.6255636,44.4841242 53.6480149,44.5303542 53.668221,44.5759705 C53.8061941,44.8897619 53.9988666,46.6438436 54.5162657,47.4410046 C54.5972943,47.5655802 54.6917937,47.6813598 54.7979268,47.7856842 L56.4293159,49.3930981 C56.7158755,49.6755921 57.2849125,49.8680809 57.6798503,49.9441763 C58.8438453,50.1683715 60.0794802,50.1769629 61.2242896,50.6100114 C61.2798054,50.6310808 61.354915,50.6599234 61.4141047,50.6627872 C62.7403609,50.7523835 63.8272053,49.6469541 65.1114165,49.556335 C65.4132837,49.5356747 66.0274273,49.7324592 66.1835655,50.6335355 C66.2992915,51.3044845 67.3326611,51.0921537 67.8194449,50.949577 C68.0402835,50.8849368 68.2766339,50.8965966 68.4901248,50.9837382 C68.4917576,50.9845564 68.4929822,50.9859883 68.4931864,50.9880339 C68.4933905,50.9894658 68.4935946,50.9915114 68.4940028,50.9931478 C68.5086981,51.1389974 68.6372825,51.2455719 68.7828074,51.2332985 C68.7870936,51.2330939 68.7915838,51.2326848 68.7956659,51.2322757 C68.8793478,51.2238888 68.9609887,51.2625502 69.0071158,51.3327135 C69.2726528,51.7352829 69.2210149,51.9950711 69.1803986,52.1898099 C69.1801945,52.190219 69.1801945,52.1906282 69.1799904,52.1912418 C69.179378,52.193492 69.1789698,52.1957421 69.1783575,52.1979922 L69.1646827,52.2634507 C69.1642745,52.2661099 69.1636622,52.2683601 69.163254,52.2710193 C69.1526407,52.3194995 69.1440684,52.3696161 69.137333,52.4189145 C69.0030337,53.4063141 69.0846746,53.8651369 68.6285061,54.231295 C68.5793175,54.2709792 68.5411504,54.3210958 68.5158417,54.3795993 C69.0105855,55.3968644 70.0892658,55.9127587 70.0892658,55.9127587 C70.2472409,56.0813142 71.1775389,57.6885235 71.2763243,58.3977248 C71.42736,59.4771754 71.42736,59.2720041 71.4551179,59.3190523 C71.930472,60.0980077 71.5147157,60.4653932 71.2246865,60.6141066 C71.1361061,60.6599275 71.0912036,60.6947023 71.0669155,60.7425688 C71.0236458,60.8280739 70.9726202,60.9131699 70.9181249,60.9919246 C70.8707732,61.0598377 70.2758152,62.6705245 70.2786726,63.0043625 L70.2786726,63.0062035 C70.2811219,63.3122217 70.7866831,63.6067847 70.9644561,63.8555268 L72.108245,65.4565993 C72.1278388,65.4842146 72.1486573,65.5120344 72.1698839,65.5384224 C72.565434,66.0385658 71.9565971,66.7457215 72.3103062,67.2479105 C72.425624,67.4117611 72.7078974,68.0683911 72.8566879,68.1714881 C73.0883439,68.3314522 74.0590541,69.7375813 73.7710659,69.9763001 C73.7406546,70.0016652 73.7443285,70.070192 73.7575951,70.1084443 C73.8443386,70.3592319 75.0203756,70.7593467 75.4549093,70.5731992 C76.1004846,70.2966373 77.4542947,70.0806245 78.005983,70.0845111 C78.7689171,70.0904432 82.4401039,67.4524681 82.150687,66.5432094 C82.146809,66.5313451 82.1457885,66.518458 82.1476254,66.5061845 C82.1476254,66.5057754 82.1478295,66.5057754 82.1482377,66.5053663 C82.5774647,65.9976542 83.8226924,65.3729353 83.7888115,65.3087042 C83.7881991,65.3074768 83.7877909,65.3066586 83.7871786,65.3056358 C83.9484194,64.9466372 84.0039352,64.6485967 84.0067926,64.4121281 C84.0143444,63.769408 84.3225388,63.167804 84.8383051,62.7863041 C85.2781454,62.4600347 85.9192305,61.9950752 86.8589172,61.3128755 C87.4457111,60.886782 87.741047,60.5848549 87.691042,58.7485411 C87.6447108,57.0642136 87.3452928,55.7495217 87.2450786,55.4655957 C87.1042481,55.067322 87.1436398,54.9932722 87.3022272,54.6970727 C87.7739075,53.8240208 88.4131556,53.054475 88.8644257,52.1679223 C89.581845,50.7591339 90.4629543,49.9308801 90.9458602,49.4824897 C90.9670868,49.4626477 90.9864765,49.4428056 91.0050498,49.4207133 C91.8788115,48.3940386 92.3813112,47.0067288 92.6988942,45.7053332 C92.766248,45.4293849 92.8731975,45.1671421 92.9538179,44.8961032 C93.0146404,44.6909319 93.1030167,44.5150124 93.2113949,43.4533583 C93.2303764,43.2719157 93.1299581,43.1092923 93.1387345,42.9292816 C93.1789427,42.2301037 92.9391226,42.8462312 92.7348162,42.9450326 C92.2129268,43.1933655 92.4952002,43.106224 92.2682385,43.25371 C92.1580233,43.3232596 91.3165098,43.6213001 91.2146628,43.7158057 C91.0958753,43.8260623 90.9842314,43.949206 90.8119691,43.9715027 C89.7753339,44.1016014 89.5922542,44.1245118 89.4091745,43.9549336 C89.2356876,43.7949695 89.1254724,43.5938894 89.0795494,43.3623301 C89.0315854,43.1193157 88.9087159,42.8936886 88.7223705,42.719201 C87.7300255,41.7913276 85.7853395,41.1884962 85.3248848,38.6710055 C85.2548778,38.2925739 82.4909254,34.2924495 81.9239294,33.4832196 C81.8604536,33.3930097 81.8400434,33.2788665 81.8678013,33.1720874 C81.8682095,33.1708601 81.8682095,33.1694282 81.8686177,33.1679963 C81.9763837,33.4433308 82.4052024,33.9350874 82.6670656,34.2059217 C82.7419711,34.2836536 82.847492,34.3192466 82.9332149,34.2541973 C83.035266,34.1764654 82.9675041,34.0612994 82.9885266,33.6947322 C82.9944456,33.5899987 83.1458894,33.58243 83.1628299,33.685118 C83.2012011,33.9140179 83.3114163,34.1226667 83.4779638,34.2838581 C83.8449396,34.6385611 84.2919234,35.2968275 84.586443,35.7597414 C84.7670734,36.0438719 85.0113838,36.2750221 85.3042705,36.4407137 C85.7232924,36.6780006 85.8492235,37.066251 86.1488455,37.9875785 C86.5037793,39.0786889 87.7779895,39.3392953 88.2488534,40.3244448 C88.6476691,41.1555625 88.7538023,42.1026643 89.2605881,42.891643 C89.2640578,42.8971661 89.2675276,42.9026891 89.2716096,42.9078031 C89.3361059,42.9953537 89.4465252,43.0362653 89.5526584,43.0115138 C90.3233484,42.8302757 91.2173162,41.8633318 91.4387671,41.6906852 C91.903712,41.3275954 92.2415011,41.054511 92.4892813,40.8454531 C92.8268663,40.5605043 93.061788,40.1767542 93.1626145,39.7461604 C93.2479292,39.3832752 93.798597,39.0653926 93.964124,39.0643698 C94.3949838,39.0610969 94.2016989,38.5004045 94.3813089,38.2494123 C94.5727568,37.9845101 94.5874522,37.6879016 94.8076785,37.4530694 C94.878706,37.3775877 94.9611633,37.3164249 95.0538258,37.2703995 C95.0632145,37.2658992 95.0695416,37.2571032 95.0715826,37.2466708 C95.1258738,36.9637676 94.9487131,36.7054113 94.9513664,36.4278266 C94.9521828,36.3562314 95.0185161,36.3007963 95.0899518,36.3151154 C95.0924011,36.3155245 95.0948503,36.3151154 95.0970954,36.3134789 C95.0989323,36.312047 95.1005652,36.3097969 95.1009734,36.3073422 C95.2538459,35.4336765 95.5477531,34.6958372 94.7770631,34.3331565 C94.4731549,34.1883297 94.1047504,34.4162069 93.8192114,34.169715 C93.8175786,34.1682831 93.8157416,34.1668512 93.814517,34.1654193 C93.6579706,34.0304112 93.4479494,33.9757943 93.2458882,34.0175241 C93.043827,34.0592539 92.8723811,34.1926254 92.7821679,34.3787729 C92.7813515,34.3802048 92.780331,34.3818412 92.7797187,34.3832731 C92.7007312,34.5446691 92.5474504,34.6559484 92.3698814,34.6813136 C92.0831178,34.721816 92.1145496,34.7733645 91.8941192,34.940079 C91.8939151,34.9402835 91.8937109,34.9402835 91.8933027,34.940079 C91.4261127,34.6944053 91.1362876,34.6727222 89.4855088,32.2065754 C88.992806,31.4718044 89.6628736,31.1038053 89.8945296,31.3727986 C89.8949378,31.3732077 89.8955501,31.3723894 89.8955501,31.3723894 C89.8959583,31.3721849 89.8965706,31.3719803 89.897183,31.3715712 C90.1027139,31.5947436 90.9387166,32.4821146 91.6171524,32.8617735 C91.8475838,32.9904403 92.5443889,33.167178 92.6717486,32.9331641 C93.1430207,32.0691127 93.4824427,32.6954682 93.5479595,32.8345673 C93.8945251,33.5734295 94.8613574,32.929073 95.0764811,32.9399145 C95.5469367,32.9640523 95.5046876,32.867092 96.8527828,32.1026602 C97.3869183,31.7993012 98.0288198,31.7524575 98.6011225,31.9748116 C99.1736292,32.1988022 99.6159188,32.6674438 99.8069584,33.252274 L99.8069584,33.252274 Z M72.5240013,29.2842652 C72.5393089,29.1631671 72.6346247,29.0747982 72.6564636,28.9561548 C72.6670769,28.9021515 72.6489118,28.8745363 72.6029888,28.8696269 C72.5962535,28.8690132 72.589314,28.8692178 72.5825786,28.8704451 C72.5517592,28.8761727 72.5246136,28.8941738 72.4925695,28.8980604 C72.3905184,28.9086974 72.4023563,28.8628765 72.3135719,28.9150387 C72.2682612,28.9414266 72.2276448,28.976406 72.1743741,28.988884 C72.1239609,29.0001346 72.0786502,28.9674054 72.0280328,28.9725194 C71.9590463,28.9780424 71.9161848,29.0498421 71.8439326,29.0482057 C71.7478005,29.0455464 71.6855493,28.9612687 71.5949279,28.9453132 C71.537167,28.9348808 71.5043065,29.0003392 71.4487907,28.9958389 C71.3924585,28.9911341 71.4087867,28.9684282 71.3630678,28.9537001 C71.2920402,28.9297668 71.2103993,29.185873 71.2250947,29.2110336 C71.2475459,29.2496949 71.2814269,29.2554226 71.3008166,29.257059 C71.3024494,29.257059 71.3044904,29.2572636 71.3057151,29.2574681 C71.3440863,29.2607411 71.375518,29.2314893 71.4138892,29.2294437 C71.5218593,29.2222842 71.8692413,29.462844 71.9888452,29.5139834 C72.0276246,29.5305526 72.0704861,29.5366893 72.1070204,29.5589861 C72.176007,29.6007158 72.2264202,29.6674016 72.2988765,29.7021764 C72.3231647,29.7140408 72.3639851,29.7330646 72.4221542,29.7230413 C72.4631788,29.7160863 72.5240013,29.7046311 72.5884976,29.4923003 C72.6156432,29.4074089 72.5137962,29.3630199 72.5240013,29.2842652 L72.5240013,29.2842652 Z"></path>
                </g>
            </g>
        </g>
    </g>
</svg>